<mxfile host="app.diagrams.net" modified="2024-04-04T23:15:05.593Z" agent="Mozilla/5.0 (Windows NT 10.0; Win64; x64) AppleWebKit/537.36 (KHTML, like Gecko) Chrome/123.0.0.0 Safari/537.36" etag="5utiU2AFSzUx7Ts3KQl5" version="24.2.2" type="device">
  <diagram name="Página-1" id="mnKoZKJ0jfASc2yyYZfy">
    <mxGraphModel dx="1195" dy="643" grid="1" gridSize="10" guides="1" tooltips="1" connect="1" arrows="1" fold="1" page="1" pageScale="1" pageWidth="827" pageHeight="1169" math="0" shadow="0">
      <root>
        <mxCell id="0" />
        <mxCell id="1" parent="0" />
        <mxCell id="8b5Vrp6vJQH2T9xsnSne-1" value="" style="swimlane;startSize=0;strokeWidth=1;" parent="1" vertex="1">
          <mxGeometry x="174" y="30" width="516" height="840" as="geometry" />
        </mxCell>
        <mxCell id="8b5Vrp6vJQH2T9xsnSne-6" value="UC01 - Ver o cardápio" style="ellipse;whiteSpace=wrap;html=1;" parent="8b5Vrp6vJQH2T9xsnSne-1" vertex="1">
          <mxGeometry x="180" y="100" width="120" height="80" as="geometry" />
        </mxCell>
        <mxCell id="8b5Vrp6vJQH2T9xsnSne-9" value="UC02- Atualizar o cardápio" style="ellipse;whiteSpace=wrap;html=1;" parent="8b5Vrp6vJQH2T9xsnSne-1" vertex="1">
          <mxGeometry x="180" y="200" width="120" height="80" as="geometry" />
        </mxCell>
        <mxCell id="8b5Vrp6vJQH2T9xsnSne-11" value="UC03 - Agendar pedido" style="ellipse;whiteSpace=wrap;html=1;" parent="8b5Vrp6vJQH2T9xsnSne-1" vertex="1">
          <mxGeometry x="180" y="310" width="120" height="80" as="geometry" />
        </mxCell>
        <mxCell id="8b5Vrp6vJQH2T9xsnSne-13" value="UC04 - Cancelar o pedido" style="ellipse;whiteSpace=wrap;html=1;" parent="8b5Vrp6vJQH2T9xsnSne-1" vertex="1">
          <mxGeometry x="180" y="420" width="120" height="80" as="geometry" />
        </mxCell>
        <mxCell id="8b5Vrp6vJQH2T9xsnSne-16" value="UC05 - Visualizar o pedido" style="ellipse;whiteSpace=wrap;html=1;" parent="8b5Vrp6vJQH2T9xsnSne-1" vertex="1">
          <mxGeometry x="180" y="530" width="120" height="80" as="geometry" />
        </mxCell>
        <mxCell id="8b5Vrp6vJQH2T9xsnSne-18" value="UC06 - Pagar pedido" style="ellipse;whiteSpace=wrap;html=1;" parent="8b5Vrp6vJQH2T9xsnSne-1" vertex="1">
          <mxGeometry x="180" y="640" width="120" height="80" as="geometry" />
        </mxCell>
        <mxCell id="8b5Vrp6vJQH2T9xsnSne-20" value="&lt;font style=&quot;font-size: 17px;&quot;&gt;&lt;b&gt;MACFEI&lt;/b&gt;&lt;/font&gt;" style="text;html=1;align=center;verticalAlign=middle;whiteSpace=wrap;rounded=0;strokeWidth=0;perimeterSpacing=0;" parent="8b5Vrp6vJQH2T9xsnSne-1" vertex="1">
          <mxGeometry x="210" y="20" width="60" height="30" as="geometry" />
        </mxCell>
        <mxCell id="3C95wMvvQXZDM87UdRIc-1" value="UC07 - Gerenciar Estoque" style="ellipse;whiteSpace=wrap;html=1;" vertex="1" parent="8b5Vrp6vJQH2T9xsnSne-1">
          <mxGeometry x="190" y="730" width="120" height="80" as="geometry" />
        </mxCell>
        <mxCell id="3C95wMvvQXZDM87UdRIc-2" value="" style="endArrow=none;html=1;rounded=0;" edge="1" parent="8b5Vrp6vJQH2T9xsnSne-1">
          <mxGeometry width="50" height="50" relative="1" as="geometry">
            <mxPoint x="300" y="748" as="sourcePoint" />
            <mxPoint x="581" y="310" as="targetPoint" />
          </mxGeometry>
        </mxCell>
        <mxCell id="8b5Vrp6vJQH2T9xsnSne-2" value="Cliente" style="shape=umlActor;verticalLabelPosition=bottom;verticalAlign=top;html=1;outlineConnect=0;" parent="1" vertex="1">
          <mxGeometry x="50" y="260" width="30" height="60" as="geometry" />
        </mxCell>
        <mxCell id="8b5Vrp6vJQH2T9xsnSne-3" value="Lanchonete" style="shape=umlActor;verticalLabelPosition=bottom;verticalAlign=top;html=1;outlineConnect=0;" parent="1" vertex="1">
          <mxGeometry x="730" y="260" width="30" height="60" as="geometry" />
        </mxCell>
        <mxCell id="8b5Vrp6vJQH2T9xsnSne-8" value="" style="endArrow=none;html=1;rounded=0;entryX=0;entryY=0.5;entryDx=0;entryDy=0;" parent="1" target="8b5Vrp6vJQH2T9xsnSne-6" edge="1">
          <mxGeometry width="50" height="50" relative="1" as="geometry">
            <mxPoint x="80" y="270" as="sourcePoint" />
            <mxPoint x="130" y="220" as="targetPoint" />
          </mxGeometry>
        </mxCell>
        <mxCell id="8b5Vrp6vJQH2T9xsnSne-10" value="" style="endArrow=none;html=1;rounded=0;exitX=0.975;exitY=0.325;exitDx=0;exitDy=0;exitPerimeter=0;" parent="1" source="8b5Vrp6vJQH2T9xsnSne-9" edge="1">
          <mxGeometry width="50" height="50" relative="1" as="geometry">
            <mxPoint x="670" y="320" as="sourcePoint" />
            <mxPoint x="720" y="270" as="targetPoint" />
          </mxGeometry>
        </mxCell>
        <mxCell id="8b5Vrp6vJQH2T9xsnSne-12" value="" style="endArrow=none;html=1;rounded=0;entryX=0;entryY=0.388;entryDx=0;entryDy=0;entryPerimeter=0;" parent="1" target="8b5Vrp6vJQH2T9xsnSne-11" edge="1">
          <mxGeometry width="50" height="50" relative="1" as="geometry">
            <mxPoint x="80" y="310" as="sourcePoint" />
            <mxPoint x="130" y="260" as="targetPoint" />
          </mxGeometry>
        </mxCell>
        <mxCell id="8b5Vrp6vJQH2T9xsnSne-15" value="" style="endArrow=none;html=1;rounded=0;entryX=0.042;entryY=0.325;entryDx=0;entryDy=0;entryPerimeter=0;" parent="1" source="8b5Vrp6vJQH2T9xsnSne-2" target="8b5Vrp6vJQH2T9xsnSne-13" edge="1">
          <mxGeometry width="50" height="50" relative="1" as="geometry">
            <mxPoint x="90" y="390" as="sourcePoint" />
            <mxPoint x="140" y="340" as="targetPoint" />
          </mxGeometry>
        </mxCell>
        <mxCell id="8b5Vrp6vJQH2T9xsnSne-17" value="" style="endArrow=none;html=1;rounded=0;" parent="1" source="8b5Vrp6vJQH2T9xsnSne-16" edge="1">
          <mxGeometry width="50" height="50" relative="1" as="geometry">
            <mxPoint x="680" y="360" as="sourcePoint" />
            <mxPoint x="730" y="310" as="targetPoint" />
          </mxGeometry>
        </mxCell>
        <mxCell id="8b5Vrp6vJQH2T9xsnSne-19" value="" style="endArrow=none;html=1;rounded=0;entryX=0;entryY=0;entryDx=0;entryDy=0;" parent="1" target="8b5Vrp6vJQH2T9xsnSne-18" edge="1">
          <mxGeometry width="50" height="50" relative="1" as="geometry">
            <mxPoint x="90" y="330" as="sourcePoint" />
            <mxPoint x="350" y="680" as="targetPoint" />
          </mxGeometry>
        </mxCell>
      </root>
    </mxGraphModel>
  </diagram>
</mxfile>
